<svg height="1024" preserveAspectRatio="none" viewBox="0 0 1024 1024" width="1024" xmlns="http://www.w3.org/2000/svg"><path d="m969.6 351.25q-8.6-20.85-19.4-40.85-6.1-11.35-12.9-22.4-29.35-47.55-71.55-89.8-138.25-138.25-333.8-138.25-195.5 0-333.75 138.25-138.25 138.25-138.25 333.75 0 195.55 138.25 333.8 138.25 138.2 333.75 138.2 195.55 0 333.8-138.2 76.15-76.2 110.35-169.75 27.85-76.25 27.85-164.05 0-67.35-16.4-127.95-1.85-6.85-3.9-13.6-6.15-19.95-14.05-39.15z" fill-opacity=".098039"/><path d="m969.7 392q-1.75-6.85-3.65-13.6-1.52421875-5.28554687-3.2-10.55-2.47128906-7.946875-5.25-15.8-9.75-27.55-23.15-53.65-5.8-11.35-12.3-22.4-30.65-52-76.35-97.75-109-109-253.65-132.05-24.5-3.9-50.05-5.35-14.9-.85-30.1-.85-14.1 0-27.9.75-177.55 9.2-305.85 137.5-138.25 138.25-138.25 333.75 0 195.55 138.25 333.8 84.79003906 84.75703125 191.1 117.55 54.53808594 16.81308594 114.75 19.95.2 0 .4 0 12.15.6 24.5.7 1.5 0 3 0 15.25 0 30.1-.8 3.5-.2 6.95-.45 30.05-2.15 58.7-7.7 11.8-2.3 23.4-5.15 120.6-30.05 214.65-124.1 72.9-72.95 107.35-161.8 27.75-71.6 30.55-153.5.3-9.2.3-18.5 0-1 0-2 0-.5 0-1-.35-61.3-14.3-117z" fill="#fff"/><path d="m983.45 536.95-291.7-291.65-279.75 110.7-1 270-112.15 112.7 244.4 244.4q2.9328125-.1421875 5.8-.35 30.05-2.15 58.7-7.7 11.8-2.3 23.4-5.15 120.6-30.05 214.65-124.1 72.9-72.95 107.35-161.8 26.64824219-68.75722656 30.3-147.05z" fill-opacity=".098039"/><path d="m269.25 685.35q0 2.4.15 4.7 1.05 21.35 12.1 35.3 18.1 24 62.35 24 1.4 0 2.85 0 42.7-.75 64.85-22.95 17.6-17.6 17.6-41.05v-173.35h-31.95v88.05q0 17.1-9.1 24.55-11.7 9.05-44.25 9.05-10.25 0-19.15 1.1-23.1 2.75-37.35 12.75-18.1 13.35-18.1 37.85z" fill="#7867f6"/><path d="m695.7 462h-31.95v85.3q0 13.75-5.2 20.7-1.5 1.9-3.35 3.3-9.05 7.45-34.1 7.45-51.2 0-70.9 17.05-14.4 12.25-14.4 36.25 0 20.25 12.8 36.8 2 2.55 4.25 4.85 1.45 1.5 3.05 2.9 21.9 19.45 65.2 19.45 45.85 0 64.5-31.5 9.6-15.95 10.1-31.95z" fill="#4e9ceb"/><path d="m685.6 239.15-10.15-1.05-263.9 54.9q-14.35 2.65-14.35 19.2v199.8h31.95v-95.85q0-9.05 1.6-12.8 1.6-3.75 6.95-5.35l209.5-45.3q10.65-2.65 13.85 1.1 2.7 3.2 2.7 14.35v93.85h31.95v-203.1q0-15.45-10.1-19.75z" fill="#ee5b73"/></svg>